<?xml version="1.0" encoding="UTF-8"?>
<svg id="Layer_1" data-name="Layer 1" xmlns="http://www.w3.org/2000/svg" version="1.1" viewBox="0 0 1920 972.77">
  <defs>
    <style>
      .cls-1 {
        fill: none;
      }

      .cls-1, .cls-2, .cls-3 {
        stroke-width: 0px;
      }

      .cls-2 {
        fill: #58585a;
      }

      .cls-3 {
        fill: #0f75bc;
      }
    </style>
  </defs>
  <polygon class="cls-2" points="-.41 545.4 285.14 532.04 343.58 396.78 430.42 657.28 527.27 19.38 644.16 543.73 1205.25 555.42 624.12 590.49 543.97 314.95 445.45 952.85 336.9 490.85 288.48 553.75 -.41 545.4"/>
  <g>
    <path class="cls-3" d="M851.76,361.87c-7.32-9.42-15.7-16.74-25.64-21.71-9.94-4.97-22.76-10.2-38.46-15.7-15.7-4.97-27.47-9.94-34.8-14.39-7.33-4.45-11.25-10.73-11.25-18.84,0-7.32,2.35-12.82,6.8-16.74,4.45-3.92,10.2-6.02,17.27-6.02,8.37,0,15.17,2.36,20.67,7.06,4.97,4.19,7.85,10.46,8.37,17.79l60.96-20.41c-4.19-13.34-11.77-24.59-22.76-33.22-16.48-13.08-38.2-19.62-65.14-19.62s-47.88,6.54-64.36,19.62c-16.48,13.08-24.59,31.13-24.59,54.41,0,15.7,3.4,28.25,10.73,37.93,7.06,9.68,15.7,17.01,25.64,21.98s23.02,9.94,38.72,14.91c10.99,3.4,19.36,6.28,25.12,8.89,3.4,1.57,6.28,3.14,9.16,4.97,2.09,1.57,4.19,3.14,6.02,4.97,3.92,3.92,6.02,9.16,6.02,15.17,0,7.32-2.62,13.08-7.59,17.27-5.23,4.19-12.03,6.28-20.93,6.28s-15.7-2.62-20.93-7.32c-5.23-4.97-8.37-11.77-9.42-20.67l-60.17,19.88c2.09,7.85,5.49,15.17,10.2,21.45,8.63,11.51,19.88,20.41,34.01,26.16,14.13,6.02,30.08,8.9,48.14,8.9s34.01-3.4,47.61-10.2c13.34-6.8,23.55-16.22,30.87-27.73,7.06-11.51,10.47-24.33,10.47-38.72s-3.66-26.95-10.73-36.37Z"/>
    <path class="cls-3" d="M1127.5,281.56c-10.99-19.36-26.16-34.27-45.26-45.26-19.1-10.99-40.03-16.22-63.05-16.22s-44.21,5.23-63.31,16.22c-3.4,1.83-6.54,3.92-9.68,6.28-14.65,10.2-26.69,23.02-35.84,38.98-11.25,19.62-17.01,41.34-17.01,65.67s5.75,46.31,17.01,65.93c11.25,19.36,26.42,34.53,45.52,45.52,19.1,10.99,40.29,16.22,63.31,16.22s43.95-5.23,63.05-16.22c18.84-10.99,34.01-26.16,45-45.52,11.25-19.62,16.74-41.6,16.74-65.93s-5.49-46.04-16.48-65.67ZM1066.02,399.81c-11.77,13.34-27.47,19.88-46.83,19.88s-35.58-6.54-47.09-19.62c-11.77-13.34-17.79-30.87-17.79-52.85s6.02-39.77,17.79-52.85c11.51-12.82,27.21-19.36,47.09-19.36s35.06,6.54,46.83,19.62c11.51,13.08,17.53,30.61,17.53,52.59s-6.02,39.24-17.53,52.59Z"/>
    <path class="cls-3" d="M1325.81,223.48v148.86c0,14.91-3.66,26.42-11.25,34.53-7.32,8.11-18.05,12.03-31.92,12.03s-24.59-3.92-31.66-12.03c-7.32-8.11-10.73-19.62-10.73-34.53v-148.86h-59.65v148.6c0,22.24,4.45,41.07,13.34,56.51,8.63,15.7,20.67,27.21,35.84,34.8,15.17,7.85,32.44,11.51,51.8,11.51s36.63-3.92,52.32-11.51c15.7-7.85,28.25-19.36,37.41-34.8,9.42-15.43,13.86-34.27,13.86-56.51v-148.6h-59.39Z"/>
    <path class="cls-3" d="M1590.56,223.48v154.35l-99.42-154.35h-59.65v249.06h59.65v-153.57l99.42,153.57h59.65v-249.06h-59.65Z"/>
    <path class="cls-3" d="M1901.62,282.86c-10.46-18.84-25.38-33.22-44.74-43.69-19.36-10.47-41.86-15.7-67.5-15.7h-91.57v249.06h91.57c25.38,0,47.88-5.23,67.24-15.7,19.36-10.47,34.53-25.12,45-43.95,10.47-18.84,15.7-40.55,15.7-64.88s-5.23-46.3-15.7-65.14ZM1838.05,401.11c-12.56,12.56-30.08,18.84-52.59,18.84h-28.25v-144.67h28.25c22.5,0,40.03,6.28,52.59,19.1,12.56,12.82,18.84,30.61,18.84,53.63s-6.28,40.55-18.84,53.11Z"/>
  </g>
  <g>
    <path class="cls-3" d="M1351.3,514.97v131.11h-23.94v-55.95h-56.26v55.95h-24.09v-131.11h24.09v52.99h56.26v-52.99h23.94Z"/>
    <path class="cls-3" d="M1468.69,623.73v22.35h-86.12v-131.11h84.54v22.33h-60.45v31.58h52.25v20.69h-52.25v34.16h62.03Z"/>
    <path class="cls-3" d="M1528.24,514.97h21.31l47.16,131.11h-24.81l-11.52-32.7h-43.33l-11.34,32.7h-24.81l47.34-131.11ZM1556.02,595.47l-17.12-51.53-17.81,51.53h34.92Z"/>
    <path class="cls-3" d="M1615.75,646.08v-131.11h24.09v108.76h63.26v22.35h-87.35Z"/>
    <path class="cls-3" d="M1795.3,537.3h-39.65v108.79h-23.91v-108.79h-39.65v-22.33h103.22v22.33Z"/>
    <path class="cls-3" d="M1920.39,514.97v131.11h-23.94v-55.95h-56.26v55.95h-24.09v-131.11h24.09v52.99h56.26v-52.99h23.94Z"/>
  </g>
  <g>
    <g>
      <path class="cls-3" d="M1334.55,127.54c-4.75-.86-20.32,13.32-22.08,14.82-6.72,5.73-14.19,12.01-17.62,20.4-3.85,9.39-3.87,19.95-2.94,29.9.85,9.14,1.4,20.35,6.64,28.19,1.43,2.14,7.46,13.65,11.02,11.87,3-1.51-1.78-11.79-2.55-13.73-3.26-8.22-3.74-17.32-3.27-26.05.5-9.3,3.5-18.37,8.6-26.31,2.62-4.08,5.68-7.85,8.91-11.45,6.79-7.59,15.5-13.34,14.87-24.68-.04-.75-.13-1.52-.49-2.18-.23-.43-.61-.68-1.09-.77Z"/>
      <path class="cls-3" d="M1233.46,127.54c4.75-.86,20.32,13.32,22.08,14.82,6.72,5.73,14.19,12.01,17.62,20.4,3.85,9.39,3.87,19.95,2.94,29.9-.85,9.14-1.4,20.35-6.64,28.19-1.43,2.14-7.46,13.65-11.02,11.87-3-1.51,1.78-11.79,2.55-13.73,3.26-8.22,3.74-17.32,3.27-26.05-.5-9.3-3.5-18.37-8.6-26.31-2.62-4.08-5.68-7.85-8.91-11.45-6.79-7.59-15.5-13.34-14.87-24.68.04-.75.13-1.52.49-2.18.23-.43.61-.68,1.09-.77Z"/>
    </g>
    <circle class="cls-2" cx="1284" cy="128.76" r="12.11"/>
  </g>
  <line class="cls-1" x1="855.68" y1="272.92" x2="794.73" y2="293.33"/>
  <line class="cls-1" x1="988.58" y1="228.45" x2="946.2" y2="242.58"/>
  <line class="cls-1" x1="741.36" y1="398.5" x2="681.18" y2="418.38"/>
</svg>